<?xml version="1.0" encoding="UTF-8" standalone="no"?>
<!-- Generator: Adobe Illustrator 18.1.0, SVG Export Plug-In . SVG Version: 6.00 Build 0)  -->

<svg
   xmlns:dc="http://purl.org/dc/elements/1.1/"
   xmlns:cc="http://creativecommons.org/ns#"
   xmlns:rdf="http://www.w3.org/1999/02/22-rdf-syntax-ns#"
   xmlns:svg="http://www.w3.org/2000/svg"
   xmlns="http://www.w3.org/2000/svg"
   xmlns:sodipodi="http://sodipodi.sourceforge.net/DTD/sodipodi-0.dtd"
   xmlns:inkscape="http://www.inkscape.org/namespaces/inkscape"
   version="1.1"
   id="Gopher"
   x="0px"
   y="0px"
   viewBox="0 0 65.467108 65.467108"
   enable-background="new 0 0 215.6 281.6"
   xml:space="preserve"
   inkscape:version="0.91 r13725"
   sodipodi:docname="favicon.svg"
   width="65.46711"
   height="65.46711"><metadata
     id="metadata4528"><rdf:RDF><cc:Work
         rdf:about=""><dc:format>image/svg+xml</dc:format><dc:type
           rdf:resource="http://purl.org/dc/dcmitype/StillImage" /><dc:title></dc:title></cc:Work></rdf:RDF></metadata><defs
     id="defs4526" /><sodipodi:namedview
     pagecolor="#ffffff"
     bordercolor="#666666"
     borderopacity="1"
     objecttolerance="10"
     gridtolerance="10"
     guidetolerance="10"
     inkscape:pageopacity="0"
     inkscape:pageshadow="2"
     inkscape:window-width="2556"
     inkscape:window-height="1116"
     id="namedview4524"
     showgrid="false"
     fit-margin-top="0"
     fit-margin-left="0"
     fit-margin-right="0"
     fit-margin-bottom="0"
     inkscape:zoom="4.7257633"
     inkscape:cx="-0.85019817"
     inkscape:cy="22.174264"
     inkscape:window-x="0"
     inkscape:window-y="16"
     inkscape:window-maximized="0"
     inkscape:current-layer="Gopher" /><rect
     style="opacity:0.98999999;fill:#ffffff;fill-opacity:1;stroke:#ffffff;stroke-width:1;stroke-linecap:round;stroke-miterlimit:4;stroke-dasharray:none;stroke-opacity:1"
     id="rect5249"
     width="64.46711"
     height="64.46711"
     x="0.5"
     y="0.5" /><g
     id="g5272"
     transform="translate(-60.396331,-115.35131)"><g
       transform="matrix(0.22918543,0,0,0.22918543,60.997012,114.51122)"
       id="g4484"><path
         style="fill:#8cc5e7"
         inkscape:connector-curvature="0"
         id="path4486"
         d="m 207.3,44.6 c -6.7,-13.7 -22.9,-1.6 -27,-5.9 -21,-21.6 -46.4,-27 -66.3,-28 0,0 -9,0 -11,0 -20,0.5 -45.4,6.3 -66.3,28 -4.1,4.3 -20.4,-7.8 -27,5.9 -7.7,16 15.7,17.6 14.5,24.7 -2.3,12.8 -0.8,31.8 1,50.5 2.8,31.7 -20.9,107.6 28.4,138.1 9.3,5.8 34.4,9 56.2,9.5 l 0,0 c 0,0 0.1,0 0.1,0 0,0 0.1,0 0.1,0 l 0,0 c 21.8,-0.5 43.9,-3.7 53.2,-9.5 49.4,-30.5 25.7,-106.4 28.6,-138.1 1.7,-18.7 3.2,-37.7 1,-50.5 -1.2,-7.1 22.2,-8.8 14.5,-24.7 z" /><g
         id="g4488"><path
           style="fill:#e0dedc"
           inkscape:connector-curvature="0"
           id="path4490"
           d="m 143.2,54.3 c -33.4,3.9 -28.9,38.7 -16,50 24,21 49,0 46.2,-21.2 -2.5,-20.4 -19.8,-30 -30.2,-28.8 z" /><circle
           style="fill:#111212"
           id="circle4492"
           r="11.4"
           cy="84.300003"
           cx="145.5" /><circle
           style="fill:#ffffff"
           id="circle4494"
           r="3.5999999"
           cy="79.400002"
           cx="142.5" /></g><g
         id="g4496"><path
           style="fill:#b8937f"
           inkscape:connector-curvature="0"
           id="path4498"
           d="m 108.5,107 c -16,2.4 -21.7,7 -20.5,14.2 2,11.8 39.7,10.5 40.9,0.6 1,-8.5 -14.1,-15.7 -20.4,-14.8 z" /><path
           inkscape:connector-curvature="0"
           id="path4500"
           d="m 98.2,111.8 c -2.7,9.8 21.7,8.3 21.1,2 -0.3,-3.7 -3.6,-8.4 -12.3,-8.2 -3.4,0.1 -7.6,1.6 -8.8,6.2 z" /><path
           style="fill:#e0dedc"
           inkscape:connector-curvature="0"
           id="path4502"
           d="m 99,127.7 c -0.9,0.4 -2.4,10.2 2.2,10.7 3.1,0.3 11.6,1.3 13.6,0 3.9,-2.5 3.5,-8.5 1.3,-10 C 112.4,126 100,127.2 99,127.7 Z" /></g><g
         id="g4504"><path
           style="fill:#e0dedc"
           inkscape:connector-curvature="0"
           id="path4506"
           d="m 73.6,54.3 c 33.4,3.9 28.9,38.7 16,50 -24,21 -49,0 -46.2,-21.2 2.6,-20.4 19.9,-30 30.2,-28.8 z" /><circle
           style="fill:#111212"
           id="circle4508"
           r="11.4"
           cy="84.300003"
           cx="71.400002" /><circle
           style="fill:#ffffff"
           id="circle4510"
           r="3.5999999"
           cy="79.400002"
           cx="74.400002" /></g><path
         style="fill:#b8937f"
         inkscape:connector-curvature="0"
         id="path4512"
         d="m 193.6,186.7 c 11,0.1 5.6,-23.5 -1.2,-18.8 -3.3,2.3 -3.9,7.6 -3.9,12.1 0,2.5 2,6.6 5.1,6.7 z" /><path
         style="fill:#b8937f"
         inkscape:connector-curvature="0"
         id="path4514"
         d="m 23.3,186.7 c -11,0.1 -5.6,-23.5 1.2,-18.8 3.3,2.3 3.9,7.6 3.9,12.1 0,2.5 -2,6.6 -5.1,6.7 z" /><path
         style="fill:#b8937f"
         inkscape:connector-curvature="0"
         id="path4516"
         d="m 172.7,259.2 c -6,-8.9 -11.4,-2 -20.1,2.4 -4.1,2.1 6.8,9.6 19,4 3.2,-1.5 3.1,-3.5 1.1,-6.4 z" /><path
         style="fill:#b8937f"
         inkscape:connector-curvature="0"
         id="path4518"
         d="m 44.2,260.2 c 6,-8.9 11.4,-2 20.1,2.4 4.1,2.1 -6.8,9.6 -19,4 -3.2,-1.5 -3.1,-3.5 -1.1,-6.4 z" /><path
         style="fill:#3c89bf"
         inkscape:connector-curvature="0"
         id="path4520"
         d="m 188.6,47 c -0.6,2.1 2.1,1.8 3.1,8.3 0.4,2.4 9,-3.5 5.5,-7.8 -2.9,-3.6 -8.1,-2.6 -8.6,-0.5 z" /><path
         style="fill:#3c89bf"
         inkscape:connector-curvature="0"
         id="path4522"
         d="m 28.3,47 c 0.6,2.1 -2.1,1.8 -3.1,8.3 -0.4,2.4 -9,-3.5 -5.5,-7.8 2.8,-3.6 8,-2.6 8.6,-0.5 z" /></g><path
       inkscape:connector-curvature="0"
       id="path3041"
       d="m 119.87006,148.20184 q 0.4524,0 0.86545,0.17703 0.64907,0.25568 1.03262,0.80643 0.38355,0.55072 0.38355,1.21947 l 0,25.35337 q 0,0.66874 -0.38355,1.21948 -0.38355,0.55072 -1.03262,0.80642 -0.37372,0.15736 -0.86545,0.15736 -0.94411,0 -1.63252,-0.62941 l -8.67403,-8.33966 -8.67404,8.33966 q -0.70808,0.64909 -1.63253,0.64909 -0.452387,0 -0.865436,-0.17704 -0.649079,-0.2557 -1.032625,-0.80642 -0.383546,-0.55074 -0.383546,-1.21948 l 0,-25.35337 q 0,-0.66875 0.383546,-1.21947 0.383546,-0.55075 1.032625,-0.80643 0.413049,-0.17703 0.865436,-0.17703 l 20.61312,0 z"
       style="fill:#ffffff;fill-opacity:1;stroke:#000000;stroke-width:2.49027967;stroke-miterlimit:4;stroke-dasharray:none;stroke-opacity:1" /></g></svg>