<?xml version="1.0" standalone="no"?>
<!DOCTYPE svg PUBLIC "-//W3C//DTD SVG 20010904//EN"
 "http://www.w3.org/TR/2001/REC-SVG-20010904/DTD/svg10.dtd">
<svg version="1.0" xmlns="http://www.w3.org/2000/svg"
 width="700.000000pt" height="700.000000pt" viewBox="0 0 700.000000 700.000000"
 preserveAspectRatio="xMidYMid meet">
<metadata>
Created by potrace 1.11, written by Peter Selinger 2001-2013
</metadata>
<g transform="translate(0.000000,700.000000) scale(0.100000,-0.100000)"
fill="#000000" stroke="none">
<path d="M2508 6825 c-2 -1 -41 -5 -88 -9 -47 -3 -94 -8 -105 -10 -11 -2 -40
-7 -65 -10 -53 -7 -59 -8 -186 -36 -107 -23 -301 -85 -392 -127 -31 -14 -73
-32 -92 -41 -52 -24 -254 -144 -258 -154 -2 -4 -10 -8 -18 -8 -8 0 -14 -4 -14
-9 0 -5 -8 -12 -17 -15 -10 -4 -32 -19 -50 -34 -17 -15 -46 -38 -63 -51 -35
-27 -65 -54 -155 -139 l-59 -57 -71 1 c-66 1 -95 4 -155 18 -14 4 -64 9 -111
12 -67 5 -99 3 -141 -11 -59 -18 -130 -75 -142 -113 -4 -12 -11 -22 -15 -22
-7 0 -17 -27 -40 -110 -18 -63 11 -160 65 -215 35 -36 94 -80 195 -145 42 -26
87 -62 101 -80 26 -34 27 -42 11 -175 -19 -161 -7 -658 22 -943 25 -237 25
-466 0 -747 -1 -16 -5 -70 -9 -120 -4 -49 -9 -112 -11 -140 -2 -27 -7 -88 -11
-135 -4 -47 -8 -96 -9 -110 -1 -14 -3 -42 -4 -62 -1 -28 -6 -38 -22 -43 -12
-4 -28 -15 -37 -24 -17 -17 -56 -86 -58 -103 -1 -4 -2 -9 -4 -10 -15 -20 -19
-173 -6 -219 14 -48 53 -94 86 -102 24 -6 25 -9 26 -89 1 -79 11 -263 18 -318
17 -125 21 -152 32 -212 3 -18 8 -43 9 -55 2 -11 6 -30 9 -41 4 -11 9 -31 12
-44 6 -29 7 -32 24 -88 8 -25 14 -48 16 -52 1 -5 3 -10 4 -13 1 -3 4 -9 5 -15
1 -5 4 -12 5 -15 1 -3 3 -8 5 -12 1 -5 5 -17 9 -28 38 -99 135 -292 164 -323
6 -7 12 -17 12 -22 0 -5 6 -15 13 -22 7 -7 19 -22 27 -34 48 -69 133 -160 214
-229 79 -67 89 -75 98 -75 21 0 4 -19 -29 -33 -37 -15 -103 -77 -103 -97 0 -5
-4 -10 -9 -10 -11 0 -25 -47 -23 -78 0 -12 8 -29 16 -38 14 -13 77 -45 101
-50 6 -1 30 -7 54 -14 43 -11 144 -15 186 -6 53 11 134 46 158 68 29 27 37 68
13 68 -8 0 -16 6 -19 14 -5 12 7 11 59 -4 61 -18 83 -23 159 -36 17 -3 41 -7
55 -9 14 -3 39 -7 55 -9 17 -3 44 -7 60 -10 36 -6 112 -15 180 -22 28 -2 68
-6 90 -9 41 -4 156 -13 275 -20 80 -5 316 -5 390 0 60 3 217 15 265 20 90 8
153 16 175 20 14 3 43 7 65 10 46 6 78 11 155 26 72 15 97 21 152 35 14 4 17
-8 21 -98 5 -116 5 -116 36 -179 37 -78 136 -163 216 -185 53 -15 88 -20 135
-18 139 5 190 39 445 289 39 39 154 149 254 245 101 96 214 204 251 240 37 36
83 80 102 98 l36 34 102 -99 c57 -54 138 -132 180 -173 43 -41 160 -154 261
-250 100 -96 211 -202 245 -235 35 -33 70 -66 78 -72 17 -14 95 -56 111 -60
132 -31 247 -16 330 41 48 33 116 108 132 146 9 19 14 35 12 35 -1 0 4 11 11
25 12 21 14 257 15 1435 1 1487 2 1469 -43 1548 -28 51 -42 66 -106 122 -20
17 -53 34 -107 55 -50 18 -82 19 -872 20 -452 0 -823 3 -826 6 -15 15 -22 511
-8 644 26 265 41 525 40 730 0 145 -3 196 -18 362 -5 53 -3 71 10 92 16 24
187 146 206 146 5 0 9 5 9 10 0 6 5 10 11 10 7 0 37 27 69 59 64 67 85 119 77
197 -4 45 -32 132 -46 144 -4 3 -17 21 -30 41 -25 37 -63 65 -121 85 -50 19
-214 11 -315 -15 -16 -4 -58 -9 -91 -10 -66 -2 -71 0 -186 109 -20 19 -56 51
-79 70 -23 19 -47 40 -53 46 -6 5 -49 36 -96 67 -47 31 -90 60 -95 64 -29 22
-268 143 -320 163 -11 4 -31 12 -45 18 -31 14 -178 62 -203 67 -10 3 -28 7
-40 11 -12 4 -29 9 -37 10 -8 1 -26 5 -40 8 -35 8 -66 15 -92 21 -20 4 -68 12
-123 20 -11 1 -42 6 -70 10 -27 4 -66 10 -85 12 -42 5 -497 12 -502 8z"/>
</g>
</svg>
